<svg xmlns="http://www.w3.org/2000/svg" viewBox="0 0 200 60" width="100%" height="100%">
  <!-- Pin Icon with Organic Curve -->
  <g transform="translate(10, 5)">
    <!-- Outer Black Pin Base -->
    <path d="M25 0 C38.8 0 50 11.2 50 25 C50 38.8 25 50 25 50 C25 50 0 38.8 0 25 C0 11.2 11.2 0 25 0 Z" fill="#232323" />
    <!-- Highlight Ring -->
    <path d="M25 4 C35.5 4 44 12.5 44 23 C44 33.5 25 44 25 44 C25 44 6 33.5 6 23 C6 12.5 14.5 4 25 4 Z" fill="#D4F54E" opacity="0.15" />
    <!-- Neon Lime Pin Core -->
    <path d="M25 8 C33.3 8 40 14.7 40 23 C40 31.3 25 41 25 41 C25 41 10 31.3 10 23 C10 14.7 16.7 8 25 8 Z" fill="#D4F54E" />
    <!-- Inner Charcoal Core Dot -->
    <circle cx="25" cy="21" r="5" fill="#232323" />
  </g>
  <!-- Text: esnaaf -->
  <text x="75" y="40" font-family="-apple-system, BlinkMacSystemFont, 'Segoe UI', Roboto, Helvetica, Arial, sans-serif" font-weight="800" font-size="28" fill="#232323" letter-spacing="-1">
    esnaaf
    <tspan fill="#D4F54E">.</tspan>
  </text>
</svg>
